<svg width="50" height="53" viewBox="0 20 50 53" fill="none" xmlns="http://www.w3.org/2000/svg">
<g id="Layer_1">
<path id="Vector" d="M33.635 40.3867C24.5986 40.3867 17.2473 47.7093 17.2473 56.7103C17.2473 65.7114 24.5986 73.0001 33.635 73.0001C42.6714 73.0001 50.0001 65.6889 50.0001 56.7103C50.0001 47.7318 42.6601 40.3867 33.635 40.3867ZM33.635 70.9048C25.7635 70.9048 19.3509 64.5398 19.3509 56.6991C19.3509 48.8583 25.7635 42.4708 33.635 42.4708C41.5065 42.4708 47.9078 48.8471 47.9078 56.6991C47.8965 64.5398 41.4952 70.9048 33.635 70.9048Z" fill="white"/>
<path id="Vector_2" d="M34.6867 47.4837C34.6867 48.0695 34.2117 48.5426 33.6349 48.5426C29.111 48.5426 25.4241 52.2039 25.4241 56.7101C25.4241 57.2959 24.9717 57.7578 24.3836 57.7578C23.7955 57.7578 23.3318 57.2959 23.3318 56.7101C23.3318 51.0548 27.9574 46.4473 33.6349 46.4473C34.2117 46.4473 34.6754 46.9204 34.6867 47.4837Z" fill="white"/>
<g id="Group">
<path id="Vector_3" d="M10.5293 21.7422C4.72744 21.7422 0 26.4511 0 32.2303C0 38.0095 4.72744 42.7184 10.5293 42.7184C16.3311 42.7184 21.0586 38.0207 21.0586 32.2303C21.0586 26.4399 16.3311 21.7422 10.5293 21.7422ZM10.5293 40.6231C5.88102 40.6231 2.1036 36.8604 2.1036 32.2303C2.1036 27.6002 5.88102 23.8376 10.5293 23.8376C15.1776 23.8376 18.955 27.6002 18.955 32.2303C18.955 36.8604 15.1776 40.6231 10.5293 40.6231Z" fill="white"/>
</g>
<g id="Group_2">
<path id="Vector_4" d="M11.5699 26.5301C11.5699 27.1159 11.1062 27.5778 10.5294 27.5778C7.96208 27.5778 5.86979 29.6619 5.86979 32.2191C5.86979 32.805 5.39478 33.2781 4.81799 33.2781C4.2412 33.2781 3.75488 32.8162 3.75488 32.2191C3.75488 28.5016 6.78587 25.4824 10.5294 25.4824C10.8121 25.4824 11.0722 25.5838 11.2758 25.7866C11.4681 25.9781 11.5699 26.2485 11.5699 26.5301Z" fill="white"/>
</g>
<path id="Vector_5" d="M34.5822 22C30.9518 22 28 24.9403 28 28.5452C28 32.1614 30.9631 35.0904 34.5822 35.0904C38.2013 35.0904 41.1531 32.1614 41.1531 28.5452C41.1531 24.929 38.2013 22 34.5822 22ZM34.5822 33.0063C32.1167 33.0063 30.1149 31.0123 30.1149 28.5452C30.1149 26.0781 32.1167 24.0954 34.5822 24.0954C37.0477 24.0954 39.0608 26.0894 39.0608 28.5452C39.0608 31.0011 37.0477 33.0063 34.5822 33.0063Z" fill="white"/>
</g>
</svg>
